<?xml version="1.0" encoding="utf-8"?>
<!-- Generator: Adobe Illustrator 25.2.0, SVG Export Plug-In . SVG Version: 6.00 Build 0)  -->
<svg version="1.1" id="Layer_5" xmlns="http://www.w3.org/2000/svg" xmlns:xlink="http://www.w3.org/1999/xlink" x="0px" y="0px"
	 viewBox="0 0 606 211" style="enable-background:new 0 0 606 211;" xml:space="preserve">
<style type="text/css">
	.st0{fill:#12151F;}
	.st1{fill:#05F4B7;}
	.st2{fill:#371BB1;}
	.st3{fill:#CF0091;}
	.st4{fill:none;stroke:#12151F;stroke-miterlimit:10;}
	.st5{fill:none;stroke:#05F4B7;stroke-miterlimit:10;}
	.st6{fill:none;stroke:#371BB1;stroke-miterlimit:10;}
	.st7{fill:none;}
	.st8{fill:#FFFFFF;}
</style>
<rect x="-694" y="-190" class="st0" width="119" height="119"/>
<rect x="-530" y="-190" class="st1" width="119" height="119"/>
<rect x="-366" y="-190" class="st2" width="119" height="119"/>
<rect x="-199" y="-190" class="st3" width="119" height="119"/>
<rect x="-694" y="-358" class="st4" width="119" height="119"/>
<rect x="-530" y="-358" class="st5" width="119" height="119"/>
<rect x="-366" y="-358" class="st6" width="119" height="119"/>
<path class="st0" d="M-851.6-137.6c-6.1,17.4-13.5,27.6-21.4,27.6s-15.3-10.2-21.4-27.6c2.1,0.6,4.2,1.3,6.2,2.3
	c-1.9-1.9-4-3.6-6.3-5.2c-0.4-0.3-0.8-0.6-1.2-0.8c-0.8-2.5-1.6-5.1-2.3-7.8c2.8,1.5,5.6,2.9,8.3,4c-3.4-2.3-6.5-4.7-9.1-7.2
	c-3.5-13.7-6.5-30.2-8.5-48.7c4.7,3.3,9.2,5.8,13,7.4c-0.7-0.5-1.4-1.1-2.1-1.6c-4-3.1-7.8-6.3-11.3-9.4
	c-2.1-19.7-3.2-41.5-3.2-64.4c0-1,0-1.9,0-2.9c1.3,1.2,2.8,2.4,4.3,3.6c6.5,5,13.1,8.5,18.5,10.2c-0.7-0.5-1.4-1.1-2.1-1.6
	c-8.3-6.5-15.4-13.3-20.6-19.5c0.4-29.1,2.8-56,6.4-78.8c4,2.5,7.8,4.4,11.1,5.6c-0.7-0.5-1.4-1.1-2.1-1.6c-3-2.4-5.9-4.7-8.5-7.1
	c6.9-40.5,18.2-66.9,31-66.9s24.1,26.4,31,66.9c-2.7,2.4-5.5,4.7-8.5,7.1c-0.7,0.5-1.4,1.1-2.1,1.6c3.3-1.2,7.2-3.1,11.1-5.6
	c3.7,22.8,6,49.7,6.4,78.8c-5.2,6.2-12.3,13-20.6,19.5c-0.7,0.5-1.4,1.1-2.1,1.6c5.5-1.6,12.1-5.2,18.5-10.2
	c1.5-1.2,2.9-2.4,4.3-3.6c0,1,0,1.9,0,2.9c0,22.9-1.2,44.8-3.2,64.4c-3.5,3.1-7.2,6.2-11.3,9.4c-0.7,0.5-1.4,1.1-2.1,1.6
	c3.8-1.6,8.3-4.1,13-7.4c-2.1,18.4-5,34.9-8.5,48.7c-2.7,2.5-5.8,4.9-9.1,7.2c2.7-1.2,5.5-2.5,8.3-4c-0.7,2.7-1.5,5.3-2.3,7.8
	c-0.4,0.3-0.8,0.5-1.2,0.8c-2.3,1.6-4.4,3.4-6.3,5.2C-855.8-136.2-853.7-137-851.6-137.6z M-875-258.5c0,93.6-1,168.5,2,169.5
	s2-75.9,2-169.5s-0.9-169.5-2-169.5S-875-352.1-875-258.5z M-873-110c-0.7,0-1.3-0.1-2-0.2c0,11.7,0.9,21.2,2,21.2s2-9.5,2-21.2
	C-871.7-110.1-872.4-110-873-110z"/>
<path class="st2" d="M175.9-247.6c-20.1-7.2-33.4-16.3-36.1-26.3c-2.8-10.4,6.1-20.3,23.9-28.8c0,3-0.2,5.9-0.7,8.7
	c1.5-2.6,2.9-5.5,4.1-8.8c0.2-0.6,0.4-1.1,0.6-1.7c2.6-1.1,5.4-2.2,8.3-3.3c-1,4-1.7,7.9-2.3,11.7c1.7-4.7,3.6-9,5.7-12.9
	c15.1-5.1,33.8-9.4,55.2-12.5c-3.1,7-3.9,8.5-5.1,14c0.5-1,6.2-9.4,9.3-14.6c23.2-3.1,49.1-4.9,76.5-4.9c1.2,0,5.8,0,7,0
	c-1.5,2-5.2,7.2-5.2,7.2s4.1-3.8,10.4-7.1c34.7,0.7,66.3,4.1,92.3,9.6c-4,5.8-4.8,8.5-4.8,8.5s4.8-3.9,8.3-7.8
	c45,10,70.7,25.7,65.5,42.6c-4.9,16-36.7,29.4-80.4,37.3c-1.9-3-3.7-6.3-5.6-9.8c-0.4-0.8-0.9-1.6-1.3-2.4c0.6,3.9,1.8,8.3,3.6,12.9
	c-24,4.1-51.7,6.7-81.3,7.2c-6.1-5.8-13-13.9-19.7-23.7c-0.6-0.8-1.1-1.7-1.7-2.5c1.7,6.5,5.4,14.2,10.4,21.5
	c1.2,1.7,2.4,3.2,3.6,4.7c-1,0-2,0-3,0c-23.3,0-45.5-1.3-65.8-3.6c-3.5-3.9-7.2-8.2-11-12.8c-0.7-0.8-1.3-1.6-2-2.4
	c2.2,4.4,5.4,9.5,9.3,14.8c-19.2-2.3-36.7-5.6-51.6-9.7c-3.2-3.1-6.5-6.7-9.7-10.8c1.9,3.2,4,6.5,6.2,9.8c-3-0.9-5.9-1.8-8.6-2.7
	c-0.4-0.5-0.8-1-1.2-1.4c-2.3-2.7-4.7-5.2-7.2-7.5C173.4-252.6,174.8-250.1,175.9-247.6z M302.9-276.5c-103.2,0-186.1-1.3-186.1,2.6
	c0.1,3.8,83.7,2.6,186.1,2.6s185.6-1.1,186.1-2.6S406-276.5,302.9-276.5z M139.9-273.9c-0.2-0.9-0.4-1.7-0.4-2.6
	c-12.9,0-23,1.2-22.6,2.6s11.1,2.5,24,2.6C140.4-272.2,140.1-273,139.9-273.9z"/>
<rect x="125.3" y="-301.7" class="st7" width="380" height="40"/>
<text transform="matrix(1 0 0 1 189.9939 -279.0706)" class="st8" style="font-family:'BCAlphapipeRB-Regular'; font-size:32px;">Buffle Disc Golf</text>
<path class="st2" d="M175.9-103.6c-20.1-7.2-33.4-16.3-36.1-26.3c-2.8-10.4,6.1-20.3,23.9-28.8c0,2.9-0.2,5.9-0.7,8.7
	c1.5-2.6,2.9-5.5,4.1-8.8c0.2-0.6,0.4-1.1,0.6-1.7c2.6-1.1,5.4-2.2,8.3-3.3c-1,4-1.7,7.9-2.3,11.7c1.7-4.7,3.6-9,5.7-12.9
	c15.1-5.1,33.8-9.4,55.2-12.5c-3.1,7-3.9,8.5-5.1,14c0.5-1,6.2-9.4,9.3-14.6c23.2-3.1,49.1-4.9,76.5-4.9c1.2,0,5.8,0,7,0
	c-1.5,2-5.2,7.2-5.2,7.2s4.1-3.8,10.4-7.1c34.7,0.7,66.3,4.1,92.3,9.6c-4,5.8-4.8,8.5-4.8,8.5s4.8-3.9,8.3-7.8
	c45,10,70.7,25.7,65.5,42.6c-4.9,16-36.7,29.4-80.4,37.3c-1.9-3-3.7-6.3-5.6-9.8c-0.4-0.8-0.9-1.6-1.3-2.4c0.6,3.9,1.8,8.3,3.6,12.9
	c-24,4.1-51.7,6.7-81.3,7.2c-6.1-5.8-13-13.8-19.7-23.7c-0.6-0.8-1.1-1.7-1.7-2.5c1.7,6.5,5.4,14.2,10.4,21.5
	c1.2,1.7,2.4,3.2,3.6,4.7c-1,0-2,0-3,0c-23.3,0-45.5-1.3-65.8-3.6c-3.5-3.9-7.2-8.2-11-12.8c-0.7-0.8-1.3-1.6-2-2.4
	c2.2,4.4,5.4,9.5,9.3,14.8c-19.2-2.3-36.7-5.6-51.6-9.7c-3.2-3.1-6.5-6.7-9.7-10.8c1.9,3.2,4,6.5,6.2,9.8c-3-0.9-5.9-1.8-8.6-2.7
	c-0.4-0.5-0.8-1-1.2-1.4c-2.3-2.7-4.7-5.2-7.2-7.5C173.4-108.6,174.8-106.1,175.9-103.6z M302.9-132.5c-103.2,0-186.1-1.3-186.1,2.6
	c0.1,3.8,83.7,2.6,186.1,2.6s185.6-1.1,186.1-2.6S406-132.5,302.9-132.5z M139.9-129.9c-0.2-0.9-0.4-1.7-0.4-2.6
	c-12.9,0-23,1.2-22.6,2.6c0.4,1.4,11.1,2.5,24,2.6C140.4-128.2,140.1-129,139.9-129.9z"/>
<g>
	<path class="st8" d="M192.6-156.1c0-0.7,0.6-1.3,1.3-1.3h5.3c3.6,0,6.3,2.7,6.3,6c0,2-1.1,4.1-3.4,5c2.5,0.9,3.7,3,3.7,5.3
		c0,3.4-2.7,6.1-6.4,6.1H194c-0.7,0-1.3-0.6-1.3-1.4L192.6-156.1L192.6-156.1z M199.1-137.6c2.4,0,4-1.7,4-3.8s-1.7-3.8-3.7-3.8H198
		c-0.7,0-1.2-0.5-1.2-1.2s0.5-1.3,1.2-1.3h1.1c2,0,3.6-1.6,3.6-3.6c0-2.1-1.5-3.6-3.8-3.6h-3.5v17.3L199.1-137.6L199.1-137.6
		L199.1-137.6z"/>
	<path class="st8" d="M211.1-150.4c0-0.7,0.5-1.3,1.3-1.3c0.7,0,1.3,0.6,1.3,1.3v8.3c0,3.3,2,5,4.4,5c2.5,0,4.5-1.7,4.5-5v-8.3
		c0-0.7,0.5-1.3,1.3-1.3c0.7,0,1.3,0.6,1.3,1.3v8.2c0,4.6-3.1,7.4-7,7.4s-7-2.8-7-7.4v-8.2H211.1z"/>
	<path class="st8" d="M232.1-151.4c0.3-3.9,3-6.3,6.8-6.3c0.7,0,1.2,0.5,1.2,1.2s-0.5,1.2-1.2,1.2c-2.4,0-3.9,1.4-4.2,4h4.2
		c0.7,0,1.2,0.5,1.2,1.2c0,0.6-0.5,1.2-1.2,1.2h-4.2v12.9c0,0.7-0.6,1.3-1.3,1.3s-1.3-0.6-1.3-1.3v-13h-1.7c-0.7,0-1.2-0.5-1.2-1.2
		s0.5-1.2,1.2-1.2L232.1-151.4L232.1-151.4z"/>
	<path class="st8" d="M246.1-151.4c0.3-3.9,3-6.3,6.8-6.3c0.7,0,1.2,0.5,1.2,1.2s-0.5,1.2-1.2,1.2c-2.4,0-3.9,1.4-4.2,4h4.2
		c0.7,0,1.2,0.5,1.2,1.2c0,0.6-0.5,1.2-1.2,1.2h-4.2v12.9c0,0.7-0.6,1.3-1.3,1.3s-1.3-0.6-1.3-1.3v-13h-1.7c-0.7,0-1.2-0.5-1.2-1.2
		s0.5-1.2,1.2-1.2L246.1-151.4L246.1-151.4z"/>
	<path class="st8" d="M258.7-156.4c0-0.7,0.5-1.3,1.3-1.3c0.7,0,1.3,0.6,1.3,1.3v20.3c0,0.7-0.6,1.3-1.3,1.3c-0.7,0-1.3-0.6-1.3-1.3
		V-156.4z"/>
	<path class="st8" d="M266.5-143.2c0-4.7,3.6-8.5,8.5-8.5c2.3,0,4.3,0.9,5.5,2.1c0.3,0.3,0.5,0.6,0.5,1c0,0.3-0.1,0.6-0.4,1
		l-5.7,6.8c-0.3,0.3-0.5,0.4-0.9,0.4c-0.7,0-1.2-0.5-1.2-1.1c0-0.3,0.1-0.6,0.3-0.8l5-5.9c-0.8-0.7-2-1-3.1-1
		c-3.3,0-5.9,2.7-5.9,6.1c0,3.4,2.6,6.1,5.9,6.1c1.8,0,3.3-0.8,4.2-1.9c0.4-0.3,0.6-0.6,1.1-0.6c0.7,0,1.3,0.5,1.3,1.2
		c0,0.3-0.2,0.6-0.4,0.9c-1.3,1.6-3.5,2.8-6.2,2.8C270.2-134.8,266.5-138.5,266.5-143.2z"/>
	<path class="st8" d="M296.3-156.1c0-0.7,0.6-1.3,1.3-1.3h6.4c6.8,0,11.5,5,11.5,11.2S310.9-135,304-135h-6.4
		c-0.7,0-1.3-0.6-1.3-1.4L296.3-156.1L296.3-156.1z M304-137.6c5.2,0,8.7-3.8,8.7-8.7s-3.4-8.7-8.7-8.7h-5v17.3L304-137.6L304-137.6
		z"/>
	<path class="st8" d="M320.4-155.4c0-0.9,0.7-1.6,1.6-1.6s1.6,0.7,1.6,1.6c0,0.9-0.7,1.6-1.6,1.6
		C321.1-153.8,320.4-154.5,320.4-155.4z M320.7-150.4c0-0.7,0.5-1.3,1.3-1.3c0.7,0,1.3,0.6,1.3,1.3v14.2c0,0.7-0.6,1.3-1.3,1.3
		c-0.7,0-1.3-0.6-1.3-1.3V-150.4z"/>
	<path class="st8" d="M329.6-139.9c0.4,0,0.9,0.3,1.1,0.8c0.3,0.9,1.1,2.1,2.9,2.1c1.5,0,2.5-1.1,2.5-2.3c0-1.6-1.3-2.3-3-2.9
		c-2.2-0.7-4.5-1.6-4.5-4.8c0-2.6,2.1-4.6,4.9-4.6c2.7,0,5,1.7,5,3.8c0,0.6-0.5,1.1-1.1,1.1c-0.4,0-0.9-0.2-1.1-0.9
		c-0.2-0.8-1.2-1.8-2.7-1.8c-1.6,0-2.5,1.1-2.5,2.4c0,1.7,1.5,2.3,3.4,2.9c2,0.6,4.1,1.7,4.1,4.7c0,2.5-2.2,4.7-5.1,4.7
		c-2.8,0-5.1-1.9-5.1-4C328.4-139.4,329-139.9,329.6-139.9z"/>
	<path class="st8" d="M343.1-143.2c0-4.7,3.6-8.5,8.5-8.5c2.7,0,4.9,1.1,6.2,2.8c0.2,0.3,0.4,0.6,0.4,0.9c0,0.7-0.5,1.2-1.3,1.2
		c-0.5,0-0.7-0.3-1.1-0.5c-1-1.1-2.4-1.9-4.2-1.9c-3.3,0-5.9,2.7-5.9,6.1c0,3.4,2.6,6.1,5.9,6.1c1.8,0,3.3-0.8,4.2-1.9
		c0.3-0.3,0.6-0.6,1.1-0.6c0.7,0,1.3,0.5,1.3,1.2c0,0.3-0.2,0.6-0.4,0.9c-1.3,1.6-3.5,2.8-6.2,2.8
		C346.7-134.8,343.1-138.5,343.1-143.2z"/>
	<path class="st8" d="M372.2-146.3c0-6.4,5-11.5,11.4-11.5c3.6,0,6.7,1.6,8.7,4c0.3,0.3,0.4,0.6,0.4,1c0,0.7-0.6,1.3-1.4,1.3
		c-0.4,0-0.8-0.2-1.1-0.5c-1.5-1.9-3.8-3.2-6.6-3.2c-4.8,0-8.6,3.9-8.6,8.9s3.8,8.9,8.6,8.9c4.2,0,7.5-3,8.3-7h-6.4
		c-0.7,0-1.2-0.5-1.2-1.2s0.5-1.3,1.2-1.3h8.2c0.7,0,1.2,0.6,1.2,1.3c-0.2,5.5-4.9,10.8-11.3,10.8
		C377.3-134.8,372.2-139.8,372.2-146.3z"/>
	<path class="st8" d="M399.2-143.2c0-4.7,3.6-8.5,8.5-8.5c4.8,0,8.4,3.7,8.4,8.5c0,4.7-3.6,8.5-8.4,8.5S399.2-138.5,399.2-143.2z
		 M413.5-143.2c0-3.4-2.5-6.1-5.8-6.1s-5.9,2.7-5.9,6.1c0,3.4,2.6,6.1,5.9,6.1C410.9-137.1,413.5-139.9,413.5-143.2z"/>
	<path class="st8" d="M421.3-156.4c0-0.7,0.5-1.3,1.3-1.3c0.7,0,1.3,0.6,1.3,1.3v20.3c0,0.7-0.6,1.3-1.3,1.3c-0.7,0-1.3-0.6-1.3-1.3
		V-156.4z"/>
	<path class="st8" d="M431.4-151.4c0.3-3.9,3-6.3,6.8-6.3c0.7,0,1.2,0.5,1.2,1.2s-0.5,1.2-1.2,1.2c-2.4,0-3.9,1.4-4.2,4h4.2
		c0.7,0,1.2,0.5,1.2,1.2c0,0.6-0.5,1.2-1.2,1.2H434v12.9c0,0.7-0.6,1.3-1.3,1.3c-0.7,0-1.3-0.6-1.3-1.3v-13h-1.7
		c-0.7,0-1.2-0.5-1.2-1.2s0.5-1.2,1.2-1.2L431.4-151.4L431.4-151.4z"/>
</g>
<path class="st1" d="M99.9,145c-31.4-11.3-52.2-25.4-56.4-41.1C39.1,87.7,53,72.1,81,58.9c0,4.6-0.4,9.2-1.1,13.6
	c2.4-4,4.6-8.6,6.4-13.7c0.3-0.9,0.6-1.8,0.9-2.7c4.1-1.8,8.4-3.5,13-5.1c-1.5,6.2-2.7,12.4-3.6,18.2c2.6-7.4,5.6-14.1,8.9-20.2
	c23.6-8,52.8-14.7,86.3-19.6c-4.8,10.9-6.1,13.4-8,21.9c0.8-1.5,9.7-14.8,14.6-22.8c36.2-4.9,76.8-7.7,119.7-7.7c1.8,0,9.1,0,10.9,0
	c-2.4,3.2-8.1,11.3-8.1,11.3s6.4-5.9,16.3-11.2c54.2,1,103.8,6.5,144.4,15.1c-6.2,9.1-7.5,13.3-7.5,13.3s10.7-5.1,16.1-11.3
	c70.4,15.6,107.4,39.3,99.3,65.8c-7.7,25-57.4,46.1-125.8,58.4c-2.9-4.8-5.8-9.9-8.7-15.4c-0.7-1.3-1.3-2.6-2-3.8
	c0.9,6.1,2.8,13,5.6,20.1c-37.5,6.4-80.9,10.4-127.2,11.2c-12.1-6.8-28.6-22.5-28.6-22.5s3.2,11.7,17,22.6c-1.5,0-3.1,0-4.6,0
	c-36.4,0-67.5-1.6-99.2-5.2c-5.5-6.1-17.2-16.3-17.2-16.3s3.2,7.5,9.4,15.8c-30-3.7-59.1-9.4-82.5-15.8c-5-4.9-10.1-10.5-15.2-16.8
	c3,5.1,6.2,10.2,9.7,15.3c-4.7-1.4-9.2-2.7-13.5-4.2c-0.6-0.8-1.2-1.5-1.8-2.2c-3.6-4.3-7.4-8.2-11.2-11.7
	C96,137.2,98.1,141.1,99.9,145z M298.5,88.6c-161.4,0-291.1,9.2-291,15.2c0.1,6,131-7.2,291-7.2s290.3,9.4,291,7.2
	C590.2,101.6,459.9,88.6,298.5,88.6z M43.5,103.8c-0.4-1.3-0.8-4.9-0.9-6.2c-20.2,0-35.8,4-35.1,6.2s15.1,4.6,36.3,0.9
	C43.2,103.4,43.9,105.2,43.5,103.8z"/>
<path class="st1" d="M-533.2,147.5c-31.4-11.3-52.2-25.4-56.4-41.1c-4.4-16.2,9.5-31.8,37.5-45c0,4.6-0.4,9.2-1.1,13.6
	c2.4-4,4.6-8.6,6.4-13.7c0.3-0.9,0.6-1.8,0.9-2.7c4.1-1.8,8.4-3.5,13-5.1c-1.5,6.2-2.7,12.4-3.6,18.2c2.6-7.4,5.6-14.1,8.9-20.2
	c23.6-8,52.8-14.7,86.3-19.6c-4.8,10.9-6.1,13.4-8,21.9c0.8-1.5,9.7-14.8,14.6-22.8c36.2-4.9,76.8-7.7,119.7-7.7c1.8,0,9.1,0,10.9,0
	c-2.4,3.2-8.1,11.3-8.1,11.3s6.4-5.9,16.3-11.2c54.2,1,103.8,6.5,144.4,15.1c-6.2,9.1-7.5,13.3-7.5,13.3s7.5-6,12.9-12.2
	c70.4,15.6,110.6,40.2,102.5,66.7c-7.7,25-57.4,46.1-125.8,58.4c-2.9-4.8-5.8-9.9-8.7-15.4c-0.7-1.3-1.3-2.6-2-3.8
	c0.9,6.1,2.8,13,5.6,20.1c-37.5,6.4-80.9,10.4-127.2,11.2c-9.6-9-20.3-21.7-30.9-37c-0.9-1.3-1.8-2.6-2.6-3.9
	c2.7,10.2,8.4,22.2,16.3,33.6c1.8,2.6,3.7,5.1,5.6,7.4c-1.5,0-3.1,0-4.6,0c-36.4,0-71.2-2-102.9-5.6c-5.5-6.1-11.3-12.8-17.3-20.1
	c-1-1.3-2.1-2.6-3.1-3.8c3.4,6.9,8.4,14.9,14.6,23.2c-30-3.7-57.4-8.8-80.8-15.2c-5-4.9-10.1-10.5-15.2-16.8
	c3,5.1,6.2,10.2,9.7,15.3c-4.7-1.4-9.2-2.7-13.5-4.2c-0.6-0.8-1.2-1.5-1.8-2.2c-3.6-4.3-7.4-8.2-11.2-11.7
	C-537.1,139.7-535,143.6-533.2,147.5z M-334.6,102.3c-161.4,0-291.1-2-291,4c0.1,6,131,4,291,4s290.3-1.8,291-4
	C-42.9,104.1-173.2,102.3-334.6,102.3z M-589.6,106.3c-0.4-1.3-0.6-2.7-0.7-4c-20.2,0-36,1.8-35.3,4s17.4,4,37.5,4
	C-588.7,109-589.2,107.7-589.6,106.3z"/>
<g>
	<path class="st8" d="M-507,65.3c0-1.2,0.9-2.1,2.1-2.1h8.3c5.7,0,9.8,4.2,9.8,9.4c0,3.2-1.7,6.4-5.4,7.8c3.9,1.3,5.9,4.8,5.9,8.3
		c0,5.3-4.2,9.6-10,9.6h-8.6c-1.2,0-2.1-0.9-2.1-2.2L-507,65.3L-507,65.3z M-497,94.3c3.8,0,6.2-2.6,6.2-5.9c0-3.2-2.6-5.9-5.9-5.9
		h-2c-1.1,0-2-0.8-2-2s0.8-2,2-2h1.7c3.2,0,5.7-2.5,5.7-5.7s-2.4-5.7-6-5.7h-5.5v27.2H-497z"/>
	<path class="st8" d="M-478.2,74.3c0-1.1,0.8-2,2-2c1.1,0,2,0.9,2,2v13c0,5.1,3.1,7.8,7,7.8s7-2.7,7-7.8v-13c0-1.1,0.8-2,2-2
		c1.1,0,2,0.9,2,2v12.8c0,7.3-4.9,11.6-11,11.6s-11-4.3-11-11.6V74.3z"/>
	<path class="st8" d="M-445.4,72.7c0.4-6.1,4.7-9.9,10.6-9.9c1.1,0,1.9,0.8,1.9,1.8c0,1.1-0.8,1.8-1.9,1.8c-3.7,0-6.2,2.2-6.5,6.2
		h6.5c1.1,0,1.9,0.8,1.9,1.8s-0.8,1.8-1.9,1.8h-6.6v20.2c0,1.2-0.9,2.1-2,2.1c-1.2,0-2-0.9-2-2.1v-20h-2.7c-1.1,0-1.9-0.8-1.9-1.8
		c0-1.1,0.8-1.8,1.9-1.8L-445.4,72.7L-445.4,72.7L-445.4,72.7z"/>
	<path class="st8" d="M-423.4,72.7c0.4-6.1,4.7-9.9,10.6-9.9c1.1,0,1.9,0.8,1.9,1.8c0,1.1-0.8,1.8-1.9,1.8c-3.7,0-6.2,2.2-6.5,6.2
		h6.5c1.1,0,1.9,0.8,1.9,1.8s-0.8,1.8-1.9,1.8h-6.6v20.2c0,1.2-0.9,2.1-2,2.1c-1.2,0-2-0.9-2-2.1v-20h-2.7c-1.1,0-1.9-0.8-1.9-1.8
		c0-1.1,0.8-1.8,1.9-1.8L-423.4,72.7L-423.4,72.7L-423.4,72.7z"/>
	<path class="st8" d="M-403.6,64.8c0-1.1,0.8-2,2-2c1.1,0,2,0.9,2,2v31.8c0,1.2-0.9,2.1-2,2.1c-1.2,0-2-0.9-2-2.1V64.8z"/>
	<path class="st8" d="M-391.5,85.5c0-7.4,5.7-13.3,13.2-13.3c3.6,0,6.7,1.4,8.7,3.2c0.5,0.4,0.8,0.9,0.8,1.6c0,0.5-0.2,0.9-0.7,1.5
		l-8.9,10.7c-0.4,0.4-0.8,0.7-1.4,0.7c-1.1,0-1.9-0.8-1.9-1.8c0-0.4,0.1-0.9,0.4-1.2l7.8-9.2c-1.3-1.1-3.2-1.6-4.8-1.6
		c-5.1,0-9.2,4.2-9.2,9.6c0,5.3,4,9.6,9.2,9.6c2.9,0,5.1-1.2,6.6-3c0.5-0.5,1-0.9,1.7-0.9c1.2,0,2,0.8,2,1.9c0,0.4-0.2,0.9-0.6,1.3
		c-2.1,2.5-5.5,4.3-9.8,4.3C-385.8,98.8-391.5,92.9-391.5,85.5z"/>
	<path class="st8" d="M-344.9,65.3c0-1.2,1-2.1,2.1-2.1h10c10.7,0,17.9,7.8,17.9,17.5s-7.3,17.5-18,17.5h-10c-1.2,0-2.1-0.9-2.1-2.2
		L-344.9,65.3L-344.9,65.3z M-332.8,94.3c8.2,0,13.6-6,13.6-13.6s-5.4-13.6-13.6-13.6h-7.9v27.1C-340.7,94.3-332.8,94.3-332.8,94.3z
		"/>
	<path class="st8" d="M-307.2,66.5c0-1.4,1.1-2.5,2.5-2.5s2.5,1.1,2.5,2.5c0,1.3-1.2,2.5-2.5,2.5C-306.1,69-307.2,67.9-307.2,66.5z
		 M-306.7,74.3c0-1.1,0.8-2,2-2c1.1,0,2,0.9,2,2v22.3c0,1.2-0.9,2.1-2,2.1c-1.2,0-2-0.9-2-2.1V74.3z"/>
	<path class="st8" d="M-292.8,90.7c0.7,0,1.5,0.4,1.7,1.2c0.5,1.4,1.8,3.2,4.5,3.2c2.4,0,4-1.8,4-3.7c0-2.5-2-3.7-4.7-4.6
		c-3.5-1.2-7-2.5-7-7.5c0-4.1,3.2-7.3,7.7-7.3c4.2,0,7.8,2.6,7.8,6c0,1-0.8,1.8-1.8,1.8c-0.5,0-1.5-0.2-1.8-1.4
		c-0.3-1.3-1.9-2.8-4.2-2.8c-2.5,0-3.9,1.8-3.9,3.7c0,2.7,2.4,3.6,5.4,4.5c3.2,0.9,6.4,2.7,6.4,7.4c0,4-3.4,7.3-8,7.3
		c-4.4,0-8-3-8-6.2C-294.6,91.5-293.8,90.7-292.8,90.7z"/>
	<path class="st8" d="M-271.7,85.5c0-7.4,5.7-13.3,13.2-13.3c4.2,0,7.7,1.8,9.8,4.3c0.3,0.4,0.6,0.9,0.6,1.4c0,1.1-0.8,1.8-2,1.8
		c-0.8,0-1.2-0.4-1.7-0.8c-1.5-1.8-3.8-3-6.6-3c-5.1,0-9.2,4.2-9.2,9.6c0,5.3,4,9.6,9.2,9.6c2.8,0,5.1-1.2,6.6-3
		c0.5-0.4,1-0.9,1.7-0.9c1.2,0,2,0.8,2,1.9c0,0.4-0.2,0.9-0.6,1.3c-2.1,2.5-5.5,4.3-9.8,4.3C-266,98.8-271.7,92.9-271.7,85.5z"/>
	<path class="st8" d="M-226.1,80.7c0-10.1,7.9-18,17.8-18c5.6,0,10.5,2.5,13.6,6.3c0.4,0.4,0.6,1,0.6,1.5c0,1.2-1,2.1-2.2,2.1
		c-0.5,0-1.2-0.3-1.7-0.8c-2.4-3-6-5-10.3-5c-7.5,0-13.4,6.2-13.4,14s5.9,13.9,13.4,13.9c6.5,0,11.8-4.7,13-11h-10c-1.1,0-2-0.8-2-2
		c0-1.1,0.8-2,2-2h12.8c1.1,0,2,0.9,2,2.1c-0.3,8.6-7.6,16.9-17.7,16.9C-218.2,98.8-226.1,90.8-226.1,80.7z"/>
	<path class="st8" d="M-183.9,85.5c0-7.4,5.7-13.3,13.2-13.3s13.2,5.8,13.2,13.3s-5.7,13.3-13.2,13.3S-183.9,92.9-183.9,85.5z
		 M-161.6,85.5c0-5.3-4-9.6-9.1-9.6c-5.2,0-9.2,4.2-9.2,9.6c0,5.3,4,9.6,9.2,9.6C-165.6,95-161.6,90.7-161.6,85.5z"/>
	<path class="st8" d="M-149.4,64.8c0-1.1,0.8-2,2-2c1.1,0,2,0.9,2,2v31.8c0,1.2-0.9,2.1-2,2.1c-1.2,0-2-0.9-2-2.1V64.8z"/>
	<path class="st8" d="M-133.6,72.7c0.4-6.1,4.7-9.9,10.6-9.9c1,0,1.8,0.8,1.8,1.8c0,1.1-0.8,1.8-1.8,1.8c-3.7,0-6.2,2.2-6.5,6.2h6.5
		c1,0,1.8,0.8,1.8,1.8s-0.8,1.8-1.8,1.8h-6.5v20.2c0,1.2-0.9,2.1-2,2.1c-1.2,0-2-0.9-2-2.1v-20h-2.8c-1,0-1.9-0.8-1.9-1.8
		c0-1.1,0.8-1.8,1.9-1.8L-133.6,72.7L-133.6,72.7L-133.6,72.7z"/>
</g>
<path class="st2" d="M152-426.8c-20.8-7.3-32.9-16.1-32.9-25.5c0-9.5,12.2-18.3,32.9-25.5c-0.7,2.5-1.6,5-2.7,7.5
	c2.2-2.2,4.3-4.8,6.3-7.5c0.3-0.5,0.7-1,1-1.5c2.9-0.9,6-1.9,9.3-2.7c-1.8,3.4-3.4,6.7-4.8,9.9c2.8-4,5.6-7.7,8.6-10.9
	c16.4-4.2,36.1-7.7,58.1-10.2c-3.9,5.6-4.9,6.9-6.8,11.4c0.6-0.8,7.4-7.8,11.1-11.9c23.5-2.5,49.6-3.9,77-3.9c1.2,0,5.8,0,7,0
	c-1.5,1.6-5,5.8-5,5.8s4-3,10.2-5.7c34.7,0.5,66.9,3.3,94.1,7.7c-3,4.8-3.3,7-3.3,7s4.2-3.2,7-6.4c48.4,8.2,79.9,21.7,79.9,37
	s-31.6,28.8-79.9,37c-2.8-3.2-5.6-6.6-8.4-10.2c-0.6-0.8-1.3-1.7-1.9-2.5c1.4,4,3.7,8.5,6.7,13.3c-27.2,4.4-59.4,7.1-94.1,7.7
	c-7.4-6.2-15.5-14.7-23.3-24.6c-0.6-0.8-1.3-1.7-1.9-2.5c2,6.5,6.2,14.4,12.2,22.1c1.4,1.8,2.8,3.5,4.3,5.1c-1.1,0-2.3,0-3.5,0
	c-27.4,0-53.4-1.4-77-3.9c-3.7-4.1-7.4-8.6-11.2-13.5c-0.6-0.8-1.3-1.7-1.9-2.5c1.9,4.5,4.9,9.9,8.8,15.5c-22-2.5-41.7-6-58.1-10.2
	c-3-3.2-5.9-6.9-8.6-10.9c1.4,3.2,3,6.6,4.8,9.9c-3.2-0.9-6.3-1.8-9.3-2.7c-0.3-0.5-0.6-1-1-1.5c-1.9-2.8-4-5.3-6.3-7.5
	C150.4-431.8,151.3-429.3,152-426.8z M296.4-454.7c-111.8,0-201.2-1.2-202.4,2.4s90.6,2.4,202.4,2.4s202.4-1.1,202.4-2.4
	S408.2-454.7,296.4-454.7z M119-452.3c0-0.8,0.1-1.6,0.3-2.4c-14,0-25.3,1.1-25.3,2.4s11.3,2.4,25.3,2.4
	C119.1-450.7,119-451.5,119-452.3z"/>
<rect x="118.9" y="-480" class="st7" width="380" height="40"/>
<text transform="matrix(1 0 0 1 183.5125 -457.2927)" class="st8" style="font-family:'BCAlphapipeRB-Regular'; font-size:32px;">Buffle Disc Golf</text>
<path class="st0" d="M223,43.8c0-1.9,1.6-3.5,3.6-3.5h10.8c6.8,0,12.1,5.3,12.1,11.8c0,3.7-1.8,7.5-6.1,9.1c4.6,1.6,6.7,5.7,6.7,9.7
	c0,6.6-5.3,11.9-12.2,11.9h-11.3c-1.9,0-3.6-1.6-3.6-3.6V43.8z M236.8,76.2c3.5,0,5.9-2.5,5.9-5.7s-2.6-5.7-5.7-5.7h-1.5
	c-1.9,0-3.4-1.5-3.4-3.3c0-1.9,1.5-3.4,3.4-3.4h1c3.1,0,5.6-2.5,5.6-5.6s-2.4-5.6-5.8-5.6h-6.2v29.3
	C230.1,76.2,236.8,76.2,236.8,76.2z"/>
<path class="st0" d="M256.6,54.6c0-1.9,1.5-3.4,3.4-3.4s3.4,1.5,3.4,3.4v14.9c0,5.1,3.1,7.8,7,7.8s7-2.7,7-7.8V54.6
	c0-1.9,1.5-3.4,3.4-3.4c1.8,0,3.4,1.5,3.4,3.4v14.6c0,8.7-6,14.3-13.7,14.3s-13.7-5.5-13.7-14.3V54.6H256.6z"/>
<path class="st0" d="M293.2,51.8c0.9-7.5,6.5-12.1,13.7-12.1c1.7,0,3.1,1.4,3.1,3.1c0,1.7-1.4,3.1-3.1,3.1c-3.5,0-6.2,2-6.9,5.9h6.9
	c1.7,0,3.1,1.3,3.1,3.1c0,1.7-1.4,3.1-3.1,3.1h-7.1v22c0,1.9-1.5,3.4-3.4,3.4s-3.3-1.5-3.3-3.4V58h-2.2c-1.8,0-3.1-1.4-3.1-3.1
	c0-1.8,1.3-3.1,3.1-3.1C290.9,51.8,293.2,51.8,293.2,51.8z"/>
<path class="st0" d="M318.6,51.8c0.9-7.5,6.5-12.1,13.7-12.1c1.7,0,3.1,1.4,3.1,3.1c0,1.7-1.4,3.1-3.1,3.1c-3.5,0-6.2,2-6.9,5.9h6.9
	c1.7,0,3.1,1.3,3.1,3.1c0,1.7-1.4,3.1-3.1,3.1h-7.1v22c0,1.9-1.5,3.4-3.4,3.4s-3.3-1.5-3.3-3.4V58h-2.2c-1.8,0-3.1-1.4-3.1-3.1
	c0-1.8,1.3-3.1,3.1-3.1C316.3,51.8,318.6,51.8,318.6,51.8z"/>
<path class="st0" d="M341.1,43.1c0-1.9,1.5-3.4,3.4-3.4s3.3,1.5,3.3,3.4v37c0,1.9-1.5,3.4-3.3,3.4c-1.9,0-3.4-1.5-3.4-3.4V43.1z"/>
<path class="st0" d="M354.3,67.4c0-9,6.9-16.1,16.1-16.1c4.8,0,8.5,1.9,10.5,3.8c0.7,0.7,1.2,1.6,1.2,2.6c0,0.9-0.2,1.6-1,2.4
	l-9.4,11.1c-0.7,0.8-1.4,1.1-2.3,1.1c-1.8,0-3.2-1.3-3.2-3c0-0.7,0.2-1.5,0.7-2l7.4-8.6c-1-0.7-2.7-1.1-4-1.1
	c-5.2,0-9.4,4.4-9.4,9.9s4.1,9.9,9.4,9.9c2.9,0,5-1.2,6.5-2.7c1-0.8,1.6-1.5,2.9-1.5c1.9,0,3.3,1.3,3.3,3.2c0,0.7-0.4,1.5-1,2.2
	c-2.3,2.8-6.5,5.1-11.7,5.1C361.3,83.5,354.3,76.4,354.3,67.4z"/>
<path class="st0" d="M159.5,106.7c0.2-1.1,1.2-1.9,2.3-1.9h9.5c7.9,0,13.5,5.6,13.5,13.1c0,9.7-8.5,19.2-19.1,19.2h-10.1
	c-1.1,0-1.8-0.9-1.6-2L159.5,106.7z M165.9,133.5c8.3,0,14.9-7.6,14.9-15.1c0-5.7-4-9.9-9.8-9.9h-7.8l-4.9,25.1h7.6V133.5z"/>
<path class="st0" d="M190.9,115.1c0.2-1,1.2-1.8,2.2-1.8c1.1,0,1.8,0.8,1.5,1.8l-4,20.6c-0.2,1.1-1.2,1.9-2.2,1.9s-1.7-0.8-1.5-1.9
	L190.9,115.1z M191.7,108.3c0-1.6,1.5-2.8,2.8-2.8s1.9,0.9,1.9,1.8c0,1.6-1.5,2.8-2.8,2.8C192.4,110.2,191.7,109.2,191.7,108.3z"/>
<path class="st0" d="M198.4,130.2c0.5,0,1.2,0.2,1.4,1.1c0.2,1.3,1,3,3.6,3c2.4,0,4.4-1.7,4.4-4c0-1.7-1-2.7-3.6-3.7
	c-2.9-1.1-5.3-2.3-5.3-5.6c0-4.3,3.6-7.9,8.3-7.9c3.9,0,6.7,2.4,6.4,5.3c-0.1,1.2-1.1,1.9-2,1.9c-0.8,0-1.4-0.6-1.4-1.3
	c0-0.8-0.8-2.6-3.4-2.6c-2.6,0-4.3,1.9-4.3,4c0,1.8,1.3,2.6,4.2,3.7c3,1,4.8,2.9,4.8,5.5c0,4.4-4,8-8.5,8c-4,0-6.8-2.8-6.6-5.5
	C196.6,131.1,197.5,130.2,198.4,130.2z"/>
<path class="st0" d="M216.4,127.7c0-7.4,6.4-14.6,14.4-14.6c3.9,0,6.7,1.7,8.2,3.7c0.4,0.3,0.6,0.8,0.6,1.2c0,1.2-1.1,2.1-2.1,2.1
	c-0.6,0-0.8-0.1-1.3-0.6c-1.1-1.7-3.1-2.9-5.8-2.9c-5.7,0-10.4,5.3-10.4,10.7c0,4,2.9,7,7,7c2.5,0,5-1.2,6.8-2.9
	c0.5-0.4,1.1-0.7,1.6-0.7c1,0,1.5,0.7,1.5,1.5c0,0.6-0.3,1.3-0.8,1.7c-2.3,2.2-5.7,3.8-9.5,3.8C220.7,137.6,216.4,133.3,216.4,127.7
	z"/>
<path class="st0" d="M254.7,124.1c0-10,8.7-19.8,19.6-19.8c5.2,0,9.4,2.4,11.6,6c0.2,0.3,0.3,0.6,0.3,0.9c0,1.2-0.9,2.2-2.2,2.2
	c-0.6,0-1.1-0.3-1.5-0.8c-1.7-2.7-4.6-4.6-8.6-4.6c-8.6,0-15.3,7.8-15.3,15.5c0,5.9,4.1,10.2,10.1,10.2s11.6-4,14.1-10.1h-9.3
	c-1,0-1.5-0.7-1.5-1.4c0-1.4,1.2-2.3,2.2-2.3h11.9c1.1,0,1.7,0.8,1.4,2c-1.8,8.1-9.6,15.6-19.1,15.6
	C260.4,137.6,254.7,131.8,254.7,124.1z"/>
<path class="st0" d="M290.5,127.7c0-7.4,6.4-14.6,14.4-14.6c6.1,0,10.4,4.3,10.4,9.8c0,7.5-6.3,14.7-14.4,14.7
	C294.8,137.6,290.5,133.3,290.5,127.7z M311.6,123.5c0-4-3-6.9-7-6.9c-5.7,0-10.4,5.3-10.4,10.7c0,4,2.9,7,7,7
	C306.9,134.2,311.6,128.9,311.6,123.5z"/>
<path class="st0" d="M324,106.3c0.2-1,1.2-1.8,2.2-1.8c1.1,0,1.8,0.8,1.5,1.8l-5.7,29.3c-0.2,1.1-1.2,1.9-2.2,1.9s-1.7-0.8-1.5-1.9
	L324,106.3z"/>
<path class="st0" d="M334.9,113.6c1.5-5.9,5.8-9.2,11.4-9.2c1.1,0,1.5,0.7,1.5,1.3c0,1.2-1.1,2.1-2.1,2.1c-3.4,0-6.1,2-7.1,5.7h6.1
	c1,0,1.4,0.7,1.4,1.3c0,1.2-1.1,2.1-2.1,2.1h-6.1l-3.7,18.6c-0.2,1.1-1.2,1.9-2.2,1.9s-1.7-0.8-1.5-1.9l3.7-18.6h-2.4
	c-1,0-1.4-0.7-1.4-1.3c0-1.2,1.1-2.1,2.1-2.1L334.9,113.6L334.9,113.6z"/>
<path class="st0" d="M357.9,130.2c0-1,1.1-2.1,2.3-2.1c0.8,0,1.6,0.5,1.6,1.8c0,1.6,1.5,4.1,5.2,4.1c3.5,0,7.1-2.4,7.1-6.6
	c0-2.1-1.5-3.8-4.5-4.8l-1.9-0.6c-3.9-1.3-6.2-3.7-6.2-7.2c0-6.4,5.4-10.4,11.1-10.4c5.6,0,8.5,3.9,8.3,7.2
	c-0.1,1.2-1.2,2.2-2.3,2.2c-0.6,0-1.6-0.4-1.6-1.5c0-2.3-1.7-4.2-4.9-4.2c-3.6,0-6.7,2.7-6.7,6.4c0,2,1.5,3.5,4.5,4.4l1.7,0.6
	c4.1,1.3,6.5,3.7,6.5,7.4c0,6.7-5.6,10.8-11.5,10.8C360.8,137.6,357.5,133.3,357.9,130.2z"/>
<path class="st0" d="M386.5,117H384c-0.9,0-1.4-0.7-1.4-1.3c0-1.2,1.1-2.1,2.1-2.1h2.4l0.8-4.2c0.2-1.1,1.2-1.8,2.2-1.8
	s1.7,0.8,1.5,1.8l-0.8,4.2h6.1c0.9,0,1.4,0.7,1.4,1.3c0,1.2-1.1,2.1-2.1,2.1h-6.1l-2,10.4c-0.8,4.3,0.9,6.6,4.8,6.6
	c0.9,0,1.4,0.7,1.4,1.3c0,1.2-1.1,2.1-2.1,2.1c-5.9,0-9-3.9-7.8-10.1L386.5,117z"/>
<path class="st0" d="M398.7,127.7c0-7.4,6.4-14.6,14.4-14.6c6.1,0,10.4,4.3,10.4,9.8c0,7.5-6.3,14.7-14.4,14.7
	C403.1,137.6,398.7,133.3,398.7,127.7z M419.9,123.5c0-4-3-6.9-7-6.9c-5.7,0-10.4,5.3-10.4,10.7c0,4,2.9,7,7,7
	C415.2,134.2,419.9,128.9,419.9,123.5z"/>
<path class="st0" d="M429,123.1c1.2-6.5,5.7-10,11.6-10c1.1,0,1.5,0.7,1.5,1.3c0,1.2-1.1,2.1-2.1,2.1c-3.7,0-6.5,2.3-7.3,6.6
	l-2.4,12.5c-0.2,1.1-1.2,1.9-2.2,1.9s-1.7-0.8-1.5-1.9L429,123.1z"/>
<path class="st0" d="M441.6,127.7c0-7.4,6.4-14.6,14.4-14.6c3.5,0,6.1,1.4,7.7,3.1c0.4,0.4,0.6,0.8,0.6,1.3s-0.2,1.1-0.7,1.5
	l-10.1,9.8c-0.4,0.4-1.1,0.6-1.6,0.6c-1,0-1.5-0.8-1.5-1.5c0-0.6,0.2-1.2,0.6-1.6l8.6-8.3c-1-0.9-2.4-1.4-4-1.4
	c-5.7,0-10.4,5.3-10.4,10.7c0,4,2.9,7,7,7c2.5,0,5-1.2,6.8-2.9c0.5-0.4,1.1-0.7,1.6-0.7c1,0,1.5,0.7,1.5,1.5c0,0.6-0.3,1.3-0.8,1.7
	c-2.3,2.2-5.7,3.8-9.5,3.8C446,137.6,441.6,133.3,441.6,127.7z"/>
<text transform="matrix(1 0 0 1 218.0523 423.9994)" class="st8" style="font-family:'BCAlphapipeTSB-Bold'; font-size:60.9068px;">Buffle</text>
<text transform="matrix(1 0 0 1 386.5523 423.9994)" class="st8" style="font-family:'BCAlphapipeTSB-Bold'; font-size:51.5211px;"> </text>
<text transform="matrix(1 0 0 1 132.7523 481.9994)" class="st8" style="font-family:'BCAlphapipeRB-Italic'; font-size:51.5211px;">Disc Golf Store</text>
</svg>
